<svg width="87" height="95" viewBox="0 0 87 95" fill="none" xmlns="http://www.w3.org/2000/svg">
<circle cx="43.5" cy="51.5" r="43.5" fill="#EBF9F3"/>
<path d="M16.8164 0.481261C16.1697 0.827168 15.7185 1.18811 15.3726 1.66938C14.5003 2.90261 14.4251 3.48915 14.4251 9.62523V15.1146L13.0565 16.5434C7.9281 21.8824 4.67959 28.1839 3.44635 35.1923C3.28092 36.1397 3.07037 38.0497 2.96509 39.4183L2.79966 41.9149L2.27328 42.1104C1.98753 42.2157 1.46115 42.5616 1.1002 42.8924C-0.0728705 43.9753 -0.0277522 43.4489 0.017366 54.9841L0.0624843 65.226L0.513667 65.9629C0.799416 66.4141 1.2506 66.8653 1.70178 67.151L2.43871 67.6022L8.39432 67.6473L14.3499 67.6924L15.7035 68.8204C20.847 73.1367 27.1786 75.8739 34.0215 76.7763C36.3676 77.077 40.7742 77.077 43.1805 76.7612C49.6174 75.934 55.8437 73.227 61.0774 68.9858L62.7017 67.6774H68.4467C74.1768 67.6774 74.2068 67.6774 74.9588 67.3165C75.7709 66.9405 76.4627 66.2487 76.7936 65.4666C76.944 65.0756 76.9891 62.9851 76.9891 54.7435C76.9891 44.8325 76.9741 44.4866 76.6883 43.9452C76.5229 43.6444 76.3124 43.2835 76.2071 43.1631C75.8612 42.7571 74.9738 42.1405 74.5678 42.0352C74.1768 41.945 74.1768 41.9299 74.0715 39.9597C73.6203 30.9361 70.2063 23.0855 63.8748 16.4682L62.5663 15.0996L62.5212 9.15901L62.4761 3.21844L62.0249 2.33111C61.5136 1.33851 60.5059 0.451182 59.5434 0.165433C59.1373 0.045118 53.2569 -2.41975e-07 38.3679 -2.41975e-07H17.7639L16.8164 0.481261ZM59.0471 2.79733C59.2727 2.96277 59.5885 3.33875 59.7389 3.63954C59.9795 4.1208 59.9946 4.75246 59.9645 11.6104L59.9194 19.07L51.7981 13.4904C44.9251 8.76798 43.6016 7.91074 43.1504 7.91074C42.6992 7.91074 40.6689 9.20413 29.8405 16.4381L17.057 24.9654L17.0119 14.9341C16.9818 9.39964 17.0119 4.60206 17.057 4.24112C17.1773 3.42899 17.7789 2.72214 18.4858 2.5567C18.7715 2.49654 27.9305 2.45143 38.8191 2.45143C58.5658 2.4815 58.626 2.4815 59.0471 2.79733ZM51.7229 16.5885L59.9194 22.2132L59.9645 24.9805C59.9946 27.4319 59.9645 27.8079 59.7239 28.2591C59.408 28.8456 58.626 29.3269 57.9943 29.3269C57.4078 29.3269 56.8363 29.9285 56.8363 30.5751C56.8363 31.4926 57.6484 32.0189 58.7613 31.8084C60.3104 31.5226 61.4985 30.6203 62.1302 29.2517C62.461 28.5298 62.4761 28.3042 62.5513 23.7021L62.6265 18.8895L63.4687 19.8671C68.3565 25.5069 71.0937 32.3498 71.5148 39.9597L71.6201 41.8096H65.0629C60.5811 41.8096 58.3854 41.8698 58.1447 41.975C57.7687 42.1405 57.4379 42.6819 57.4379 43.0879C57.4379 43.494 57.7687 44.0354 58.1447 44.2009C58.3854 44.3212 60.8518 44.3663 66.0855 44.3663H73.6654L74.0865 44.7272L74.5076 45.0882V54.7134V64.3387L74.1467 64.7297L73.7857 65.1207H61.2429H48.7L48.339 64.7447L47.963 64.3838V58.759C47.963 53.2847 47.948 53.1192 47.6472 52.7282C47.4066 52.4124 47.2111 52.3372 46.6847 52.3372C46.1583 52.3372 45.9628 52.4124 45.7222 52.7282C45.4214 53.1192 45.4063 53.2847 45.4063 58.9395C45.4063 64.459 45.4214 64.7748 45.7222 65.4215C45.8876 65.7975 46.2485 66.3239 46.5042 66.5946C47.4818 67.6172 47.3464 67.5872 53.2268 67.6774L58.5658 67.7526L56.8363 68.8956C51.1664 72.6705 45.286 74.4602 38.5032 74.4602C31.6603 74.4602 25.6596 72.6103 19.9145 68.7602L18.4256 67.7526L23.7496 67.6774C29.6149 67.6022 29.5097 67.6172 30.5023 66.6096C31.525 65.602 31.4949 65.8125 31.54 59.12L31.5851 53.044L31.2542 52.6981C30.8331 52.247 29.9458 52.2169 29.4495 52.6229L29.0886 52.9087L29.0134 58.7289L28.9382 64.5492L28.5772 64.835C28.2464 65.1057 27.8102 65.1207 15.7336 65.1207H3.2358L2.8899 64.7898L2.54399 64.474V54.7886V45.1032L2.91997 44.7423L3.28092 44.3663H11.0413H18.8016L19.1926 43.9753C19.5085 43.6444 19.5686 43.494 19.4934 42.9827C19.343 41.8246 19.734 41.8848 12.1542 41.8397L5.3714 41.7946L5.47668 40.1101C5.77746 35.1622 6.78511 31.2068 8.84551 26.9958C10.0637 24.5293 11.4924 22.2884 13.1618 20.3032L14.3499 18.8745L14.4251 23.6871C14.5154 29.0261 14.5304 29.1915 15.6132 30.4248C16.7111 31.673 19.1926 32.2746 19.8544 31.4474C20.5011 30.6503 19.9446 29.3269 18.967 29.3269C18.4858 29.3269 17.6586 28.8155 17.3277 28.3343C17.1322 28.0335 17.6586 27.6725 30.0962 19.3708C39.3605 13.1896 43.1354 10.7532 43.3008 10.8434C43.4211 10.9036 47.2111 13.4904 51.7229 16.5885Z" fill="#80D3A4"/>
<path d="M23.5988 4.948C22.7717 5.20367 21.9445 5.74509 21.373 6.40682C19.2675 8.78305 19.9894 12.5579 22.8018 13.9265C25.178 15.0996 28.0806 14.1371 29.2837 11.806C29.8101 10.7683 29.9154 9.0688 29.5244 7.94084C29.1183 6.78281 27.7046 5.3691 26.6067 5.05327C25.7645 4.7976 24.2455 4.75248 23.5988 4.948ZM26.1255 7.67013C27.5843 8.55746 27.5542 10.6931 26.0653 11.5353C25.3284 11.9564 24.6215 11.9714 23.8996 11.5653C22.7416 10.9036 22.3656 9.36959 23.1176 8.30179C23.7643 7.39942 25.178 7.09863 26.1255 7.67013Z" fill="#80D3A4"/>
<path d="M35.3446 22.063C35.089 22.2735 34.9536 22.7247 34.6829 24.2587L34.352 26.1838L33.1789 26.6951C32.5323 26.9658 31.5246 27.5373 30.9531 27.9735L29.9004 28.7405L28.246 28.1239C26.5315 27.5072 26.0352 27.417 25.554 27.6727C25.1329 27.8983 22.6965 32.2447 22.6965 32.756C22.6965 33.3275 23.0123 33.7035 24.4561 34.8766L25.6292 35.8541V38.5011V41.148L24.4561 42.1256C23.0123 43.2986 22.6965 43.6746 22.6965 44.2461C22.6965 44.7575 25.1329 49.1039 25.554 49.3294C26.0352 49.5851 26.5315 49.4949 28.246 48.8783L29.9004 48.2616L30.8478 48.9685C31.8404 49.6904 32.9233 50.292 33.8106 50.6078L34.337 50.7883L34.6829 52.7284C34.9536 54.2774 35.089 54.7286 35.3446 54.9392C35.6304 55.1647 36.0214 55.1948 38.5631 55.1948C41.2551 55.1948 41.4657 55.1798 41.7213 54.894C41.9469 54.6384 42.1876 53.6458 42.6989 50.7131C42.6989 50.698 42.7891 50.683 42.9095 50.683C43.2704 50.683 45.4511 49.5099 46.2783 48.8783L47.0754 48.2616L48.7297 48.8783C50.5645 49.54 51.0909 49.6002 51.5421 49.2091C51.7226 49.0738 52.3993 48.006 53.0611 46.8479C54.7154 43.9754 54.7154 44.0055 52.8204 42.3662L51.3466 41.0878L51.3616 38.486L51.3766 35.8842L52.8355 34.6209C54.7004 33.0117 54.7004 33.0418 53.1212 30.2444C52.4745 29.1165 51.7978 28.0487 51.6173 27.8532C51.1511 27.3869 50.6247 27.432 48.7448 28.1389L47.0904 28.7555L46.2933 28.1239C45.4511 27.4922 43.2704 26.3191 42.9095 26.3191C42.7891 26.3191 42.6989 26.3041 42.6989 26.274C42.1124 22.9052 41.962 22.3337 41.6461 22.078C41.3454 21.8374 40.9844 21.8073 38.4879 21.8073C36.0214 21.8073 35.6304 21.8374 35.3446 22.063ZM40.0369 26.0935C40.3678 28.0336 40.5031 28.2141 41.9469 28.7254C43.135 29.1315 44.3081 29.8233 45.3759 30.7407C46.3836 31.598 46.6843 31.613 48.6696 30.9062C49.4817 30.6204 50.1585 30.3798 50.1735 30.3798C50.1885 30.3798 50.4592 30.846 50.7901 31.4175L51.3917 32.4703L50.0532 33.5681C49.2561 34.2148 48.6696 34.8164 48.6094 35.042C48.5643 35.2375 48.5944 35.8692 48.6846 36.4256C48.9102 37.7341 48.9102 39.2681 48.6846 40.5765C48.5944 41.133 48.5643 41.7646 48.6094 41.9601C48.6696 42.1857 49.2711 42.8023 50.0532 43.449L51.3917 44.5469L50.7901 45.5846C50.4592 46.1561 50.1735 46.6224 50.1434 46.6224C50.1284 46.6224 49.4516 46.3817 48.6545 46.096C46.6994 45.3891 46.3836 45.4042 45.3759 46.2614C44.3081 47.1788 43.135 47.8706 41.9469 48.2767C40.5182 48.773 40.3528 48.9986 40.067 50.683C39.691 53.0291 39.8565 52.7885 38.4879 52.7885C37.8261 52.7885 37.2847 52.7735 37.2847 52.7434C37.2847 52.4125 36.638 49.2242 36.5327 49.0287C36.4425 48.8783 36.0364 48.6376 35.6003 48.5023C34.337 48.0812 32.6225 47.1337 31.675 46.3216C30.5922 45.4042 30.3215 45.3741 28.3513 46.096C27.5542 46.3817 26.8624 46.6224 26.8323 46.6224C26.7571 46.6224 25.7044 44.7123 25.7044 44.562C25.7044 44.5018 26.2909 43.9754 26.9827 43.3889C27.7497 42.7723 28.3062 42.2008 28.3663 41.9752C28.4115 41.7797 28.3814 41.1029 28.2761 40.4712C28.0655 39.0274 28.0655 37.9747 28.2761 36.5309C28.3814 35.8992 28.4115 35.2225 28.3663 35.027C28.3062 34.8014 27.7497 34.2299 26.9827 33.6133C26.2909 33.0267 25.7044 32.5003 25.7044 32.4402C25.7044 32.2898 26.7571 30.3798 26.8323 30.3798C26.8624 30.3798 27.5542 30.6204 28.3513 30.9062C30.3215 31.628 30.5922 31.598 31.675 30.6806C32.6225 29.8684 34.337 28.921 35.6003 28.4998C36.0364 28.3645 36.4425 28.1389 36.5177 27.9885C36.5929 27.8532 36.7734 27.1313 36.9087 26.3793C37.3148 24.1083 37.1193 24.349 38.5179 24.3941L39.7512 24.4392L40.0369 26.0935Z" fill="#80D3A4"/>
<path d="M36.232 31.4023C35.074 31.7933 34.1416 32.3648 33.2392 33.2672C31.7804 34.726 31.1186 36.3503 31.1186 38.5009C31.1186 40.6515 31.7804 42.2758 33.2392 43.7497C34.8334 45.3288 36.4576 45.9454 38.8489 45.8401C40.6837 45.7499 41.7064 45.404 43.0449 44.3964C46.8499 41.4937 46.8499 35.5081 43.0449 32.6054C41.6462 31.5527 40.6987 31.2369 38.7135 31.1767C37.4202 31.1466 36.8787 31.1917 36.232 31.4023ZM40.5183 34.1244C44.3233 35.9442 44.2481 41.1779 40.3829 42.9526C39.6009 43.2985 39.3753 43.3436 38.2774 43.2834C36.4125 43.1782 35.089 42.351 34.1867 40.7267C33.7957 40.0048 33.7505 39.7943 33.7505 38.5009C33.7505 37.2977 33.8107 36.9669 34.0964 36.4255C34.6379 35.4178 35.4199 34.6358 36.4125 34.1395C37.1946 33.7635 37.5104 33.6883 38.4729 33.6883C39.4204 33.6883 39.7663 33.7635 40.5183 34.1244Z" fill="#80D3A4"/>
<path d="M10.7251 46.9229C9.89796 47.2537 9.913 47.1785 9.913 54.7133C9.913 61.842 9.92804 62.0826 10.4995 62.5188C11.1011 62.985 11.5523 62.7744 17.3575 59.2552C20.5008 57.3452 23.1627 55.6758 23.268 55.5405C23.5688 55.1194 23.4936 54.232 23.1176 53.8861C22.8018 53.6004 12.8306 47.4944 11.838 46.983C11.3869 46.7424 11.1763 46.7274 10.7251 46.9229ZM16.2296 52.6379C17.929 53.6605 19.4029 54.5629 19.4931 54.6531C19.6435 54.7885 18.8314 55.3299 16.2145 56.9241C14.3045 58.0821 12.6803 59.0447 12.6051 59.0747C12.5299 59.1048 12.4697 57.27 12.4697 54.7434V50.3519L12.8156 50.5624C12.9961 50.6827 14.5301 51.6152 16.2296 52.6379Z" fill="#80D3A4"/>
<path d="M59.7988 48.6074C59.1821 49.0586 59.2724 50.4873 59.9191 50.743C60.0544 50.7881 62.3855 50.8333 65.1077 50.8333C69.7248 50.8333 70.0556 50.8182 70.3865 50.5475C70.6572 50.337 70.7475 50.1114 70.7475 49.6301C70.7475 49.1488 70.6572 48.9232 70.3865 48.7127C70.0556 48.442 69.7248 48.4269 65.0475 48.4269C61.2877 48.4269 59.9943 48.4721 59.7988 48.6074Z" fill="#80D3A4"/>
<path d="M53.1665 53.8563C52.8506 54.0969 52.7755 54.2924 52.7755 54.8188C52.7755 55.3452 52.8506 55.5407 53.1665 55.7813C53.5575 56.0972 53.7079 56.0972 61.6637 56.0972C67.2735 56.0972 69.8753 56.052 70.1159 55.9317C70.898 55.5708 71.0183 54.6233 70.3866 53.9766L69.9505 53.5405H61.754C53.6929 53.5405 53.5575 53.5405 53.1665 53.8563Z" fill="#80D3A4"/>
<path d="M53.0762 59.1049C52.8807 59.3004 52.7755 59.6012 52.7755 60.0073C52.7755 60.4134 52.8807 60.7141 53.0762 60.9097C53.377 61.2104 53.5725 61.2104 61.769 61.2104C70.0858 61.2104 70.1761 61.2104 70.4618 60.8946C70.8829 60.4284 70.8378 59.4508 70.3866 59.0899C70.0557 58.8192 69.6497 58.8041 61.7089 58.8041C53.5725 58.8041 53.377 58.8041 53.0762 59.1049Z" fill="#80D3A4"/>
</svg>
