<svg width="208" height="107" viewBox="0 0 208 107" fill="none" xmlns="http://www.w3.org/2000/svg">
<rect x="8.20984" y="34.5386" width="184.596" height="67.1259" rx="2.66978" transform="rotate(-8.2342 8.20984 34.5386)" stroke="#6F77F1" stroke-width="2.28838"/>
<path d="M58.5155 62.5497C58.6444 63.4406 58.7011 64.2509 58.6854 64.9807L40.6464 67.5912C41.0527 69.3513 41.8782 70.6567 43.123 71.5073C44.3677 72.3579 45.7919 72.6672 47.3953 72.4352C49.7115 72.1 51.2155 70.8668 51.9075 68.7355L58.6332 67.7622C58.2643 70.2408 57.182 72.3983 55.3863 74.2346C53.5862 76.0412 51.2164 77.1572 48.2767 77.5826C45.9011 77.9263 43.688 77.7161 41.6372 76.9518C39.6118 76.1535 37.9249 74.8667 36.5766 73.0913C35.258 71.3116 34.4161 69.1597 34.0508 66.6357C33.6813 64.0821 33.8765 61.765 34.6365 59.6845C35.3965 57.604 36.6366 55.9087 38.3569 54.5987C40.0773 53.2887 42.1549 52.4575 44.5898 52.1052C46.9356 51.7657 49.1021 51.9676 51.0892 52.7107C53.106 53.4496 54.7546 54.6814 56.0349 56.406C57.3406 58.0966 58.1675 60.1445 58.5155 62.5497ZM51.7993 61.7027C51.5375 60.1035 50.7737 58.9105 49.5079 58.1236C48.2377 57.307 46.786 57.0168 45.1529 57.2532C43.6088 57.4766 42.371 58.1408 41.4395 59.2457C40.5334 60.3166 40.0819 61.7007 40.085 63.3979L51.7993 61.7027ZM78.5594 72.791L72.373 65.8648L68.9831 74.1769L62.3019 75.1437L68.572 61.5947L58.642 50.4809L65.6794 49.4625L71.8148 56.3507L75.2557 48.0767L81.9369 47.1099L75.6094 60.5763L85.5968 71.7726L78.5594 72.791ZM92.1642 49.2678C92.8026 48.0234 93.766 46.929 95.0541 45.9847C96.3677 45.0064 97.9302 44.3862 99.7415 44.1241C101.85 43.819 103.825 44.0636 105.668 44.858C107.541 45.648 109.107 46.9372 110.366 48.7255C111.651 50.4798 112.476 52.619 112.841 55.143C113.206 57.6669 113.026 59.9819 112.3 62.0878C111.599 64.1597 110.465 65.8548 108.898 67.173C107.36 68.4869 105.537 69.2964 103.428 69.6015C101.617 69.8636 99.9599 69.7245 98.4568 69.1841C96.9835 68.6394 95.7346 67.8652 94.7102 66.8614L96.921 82.1389L90.6853 83.0413L85.4128 46.6069L91.6485 45.7045L92.1642 49.2678ZM106.472 56.0647C106.257 54.58 105.76 53.3483 104.982 52.3695C104.229 51.3568 103.307 50.6414 102.216 50.2233C101.154 49.8009 100.044 49.6735 98.8863 49.8411C97.7579 50.0044 96.7319 50.456 95.8083 51.196C94.91 51.902 94.2286 52.8494 93.764 54.0383C93.3291 55.223 93.2191 56.5576 93.434 58.0423C93.6488 59.527 94.1327 60.7757 94.8856 61.7885C95.6681 62.7969 96.5923 63.5272 97.6582 63.9792C98.7494 64.3973 99.8592 64.5247 100.988 64.3614C102.146 64.1938 103.172 63.7422 104.066 63.0065C104.989 62.2665 105.669 61.3042 106.103 60.1196C106.568 58.9307 106.691 57.5791 106.472 56.0647ZM140.246 50.7223C140.375 51.6131 140.432 52.4235 140.416 53.1533L122.377 55.7638C122.783 57.5239 123.609 58.8293 124.854 59.6799C126.099 60.5305 127.523 60.8398 129.126 60.6078C131.442 60.2726 132.946 59.0394 133.638 56.9081L140.364 55.9348C139.995 58.4134 138.913 60.5709 137.117 62.4072C135.317 64.2138 132.947 65.3298 130.007 65.7552C127.632 66.0989 125.419 65.8887 123.368 65.1244C121.343 64.3261 119.656 63.0393 118.307 61.2639C116.989 59.4842 116.147 57.3323 115.782 54.8083C115.412 52.2547 115.607 49.9376 116.367 47.8571C117.127 45.7766 118.367 44.0813 120.088 42.7713C121.808 41.4613 123.886 40.6301 126.321 40.2778C128.666 39.9383 130.833 40.1402 132.82 40.8833C134.837 41.6222 136.485 42.854 137.766 44.5786C139.071 46.2692 139.898 48.3171 140.246 50.7223ZM133.53 49.8753C133.268 48.2761 132.505 47.0831 131.239 46.2962C129.969 45.4796 128.517 45.1894 126.884 45.4258C125.34 45.6492 124.102 46.3134 123.17 47.4183C122.264 48.4892 121.813 49.8733 121.816 51.5705L133.53 49.8753ZM149.88 41.1885C150.493 39.7659 151.384 38.5911 152.553 37.664C153.752 36.7325 155.183 36.1465 156.846 35.9059L157.793 42.4534L156.145 42.6919C154.186 42.9755 152.768 43.6506 151.891 44.7172C151.044 45.7795 150.787 47.4539 151.117 49.7403L152.896 62.0336L146.661 62.936L143.09 38.2603L149.326 37.3579L149.88 41.1885ZM169.099 39.726L170.826 51.6629C170.947 52.4944 171.228 53.0752 171.67 53.4053C172.137 53.7015 172.846 53.7808 173.796 53.6433L176.691 53.2244L177.452 58.4802L173.532 59.0474C168.276 59.808 165.279 57.6346 164.54 52.5272L162.819 40.6348L159.879 41.0602L159.138 35.938L162.077 35.5126L161.194 29.4105L167.475 28.5017L168.358 34.6038L173.881 33.8045L174.622 38.9267L169.099 39.726Z" fill="#6F77F1"/>
<circle cx="7.34551" cy="33.8926" r="6.48375" transform="rotate(-8.2342 7.34551 33.8926)" fill="#6F77F1"/>
<ellipse cx="191.171" cy="7.29122" rx="6.10236" ry="6.48375" transform="rotate(-8.2342 191.171 7.29122)" fill="#6F77F1"/>
<ellipse cx="200.676" cy="72.9702" rx="6.10236" ry="6.48375" transform="rotate(-8.2342 200.676 72.9702)" fill="#6F77F1"/>
<circle cx="16.8501" cy="99.5718" r="6.48375" transform="rotate(-8.2342 16.8501 99.5718)" fill="#6F77F1"/>
</svg>
