<svg width="87" height="95" viewBox="0 0 87 95" fill="none" xmlns="http://www.w3.org/2000/svg">
<circle cx="43.5" cy="51.5" r="43.5" fill="#F9EBF0"/>
<path d="M33.2064 0.179809C31.6854 0.580079 30.5646 1.49269 29.8121 2.90164C29.4599 3.55809 29.4599 3.65415 29.4118 11.9958L29.3638 20.4495H17.6119C9.62249 20.4495 5.58777 20.5135 5.01138 20.6256C3.07407 21.0259 1.26485 22.4668 0.432291 24.26L0 25.1727V46.1468V67.1209L0.496335 68.1616C1.12076 69.4905 2.19348 70.5633 3.57041 71.2357L4.64313 71.7641L24.3364 71.8441C39.0183 71.9082 44.1097 71.9722 44.3499 72.1163C44.542 72.2124 45.2945 72.4685 46.031 72.6607C47.1678 72.9649 47.7922 73.0289 49.7936 73.0289C52.4033 73.0289 54.0524 72.7407 55.8296 71.9562L56.7102 71.5719L58.6796 73.8615C61.0171 76.5673 61.6736 77.0156 63.2266 76.9996C64.5235 76.9996 65.4201 76.6153 66.2046 75.7347C66.9892 74.8381 67.2133 74.1497 67.1333 72.8848L67.0692 71.8761L69.5669 71.8121C71.9525 71.7641 72.0966 71.7481 73.0893 71.2677C74.4182 70.6433 75.5709 69.4905 76.1954 68.1616L76.6917 67.1209V46.1468V25.1727L76.2594 24.26C75.3788 22.3708 73.5536 20.9778 71.4562 20.5936L70.3834 20.4014L70.3354 11.9798L70.2874 3.55809L69.8231 2.70951C69.2467 1.66881 68.5102 0.996359 67.3254 0.451992L66.4448 0.0357119L50.1938 0.0036903C37.6574 -0.0123205 33.7828 0.0197011 33.2064 0.179809ZM66.0926 2.90164C66.701 3.15782 67.4375 3.95836 67.6136 4.56677C67.6776 4.80693 67.7257 9.2099 67.7257 14.3654C67.7257 24.7724 67.7737 24.3241 66.6529 25.1246L66.1246 25.4929L56.422 25.5729C49.3132 25.637 46.6555 25.701 46.4953 25.8451C46.3673 25.9412 45.6628 26.8698 44.9103 27.8785C44.1578 28.8872 43.5173 29.7197 43.4693 29.7197C43.4213 29.7197 42.7808 28.8872 42.0283 27.8785C41.2758 26.8698 40.5713 25.9412 40.4433 25.8451C40.2992 25.717 39.1144 25.621 36.9209 25.5729C33.7828 25.4929 33.5906 25.4769 33.0943 25.1246C31.9736 24.3241 32.0216 24.7724 32.0216 14.3654C32.0216 9.2099 32.0696 4.80693 32.1337 4.56677C32.3098 3.97437 33.0303 3.15782 33.6227 2.90164C34.3432 2.58143 65.34 2.58143 66.0926 2.90164ZM29.3798 23.6997C29.3798 25.1566 30.6126 26.9659 32.1657 27.7824C32.9502 28.1987 33.1103 28.2147 35.9763 28.2948L38.9703 28.3748L40.5233 30.4562C42.6207 33.2741 42.7648 33.4182 43.4693 33.4182C44.1738 33.4182 44.3179 33.2741 46.4153 30.4562L47.9683 28.3748L57.3667 28.2948L66.765 28.2147L67.5816 27.7824C69.1346 26.9659 70.3674 25.1566 70.3674 23.6997C70.3674 23.0913 70.3834 23.0913 71.3921 23.3955C72.4328 23.7157 73.0893 24.26 73.6496 25.2687L74.13 26.1333V46.0667C74.13 68.626 74.226 66.9128 72.8491 68.1296C71.8404 69.0102 71.3121 69.1223 67.9498 69.1223L65.0038 69.1063L63.835 67.7454L62.6502 66.4004L63.1145 65.6319C63.771 64.5432 64.3634 63.1503 64.7957 61.6773C65.1159 60.5565 65.1639 60.0602 65.1479 57.5945C65.1479 55.0648 65.0999 54.6645 64.7476 53.4797L64.3314 52.1669L65.1959 51.3183C66.9571 49.5891 67.8057 47.5878 67.8057 45.1861C67.8057 43.409 67.5816 42.4003 66.8451 40.8632C65.7723 38.6377 64.1552 37.1647 61.8177 36.3162L60.6809 35.8999H38.506C17.4358 35.8999 16.283 35.9159 15.3704 36.1881C11.1115 37.501 8.64583 41.0714 8.93402 45.4904C8.99807 46.2909 9.14216 47.2996 9.27025 47.7159C10.2149 50.6939 12.4564 52.8073 15.5465 53.5918C16.6993 53.896 17.3397 53.912 25.8254 53.912H34.8555L34.7114 54.7446C34.6474 55.2089 34.5833 56.7139 34.5993 58.0748C34.6153 60.2843 34.6634 60.7166 35.0316 61.9655C35.7521 64.319 36.7928 66.1603 38.538 68.2097L39.3385 69.1223H22.5752C10.311 69.1223 5.6358 69.0743 5.1875 68.9302C4.33892 68.674 3.37828 67.8254 2.92998 66.9128L2.56173 66.1603V46.1468V26.1333L2.94599 25.3648C3.15413 24.9485 3.58642 24.3881 3.90663 24.1159C5.0434 23.1873 4.85127 23.1873 17.6599 23.1873L29.3798 23.1713V23.6997ZM61.1132 38.99C62.1859 39.4223 63.5949 40.6551 64.1713 41.6318C65.5802 44.0654 65.3561 47.0434 63.6109 49.0127L63.0665 49.6372L62.33 48.6125C60.4087 45.9226 57.3667 43.8252 53.9404 42.8326C52.8356 42.5123 52.3233 42.4643 49.8736 42.4643C47.424 42.4643 46.9116 42.5123 45.8069 42.8326C42.1564 43.8893 39.0984 46.0828 37.065 49.1408C36.5526 49.9093 36.0883 50.6779 36.0243 50.87L35.9122 51.2062L26.1296 51.1582L16.331 51.1101L15.2903 50.5978C13.9614 49.9414 12.8567 48.8366 12.2002 47.5077C11.7199 46.5471 11.6879 46.3549 11.6879 44.8659C11.6879 43.441 11.7359 43.1688 12.1362 42.3522C13.0168 40.543 14.6339 39.2141 16.4911 38.7658C17.0995 38.6057 22.287 38.5737 38.7461 38.5897L60.2006 38.6217L61.1132 38.99ZM53.6362 45.5864C57.3186 46.7552 60.2486 49.445 61.5775 52.8553C63.5789 58.0108 62.4101 63.3104 58.4714 66.9928C54.3086 70.8835 48.1765 71.5239 43.2932 68.5459C41.2918 67.3451 39.3545 65.1676 38.3458 63.0222C36.6647 59.4037 36.8729 54.9207 38.9222 51.2062C39.8028 49.6372 42.0764 47.4437 43.7095 46.5951C46.1431 45.3623 47.3119 45.1061 50.2739 45.1701C52.0351 45.2182 52.7556 45.2982 53.6362 45.5864ZM62.7303 70.6753C64.2993 72.5006 64.4595 72.7407 64.4114 73.2531C64.3474 73.9575 63.7069 74.5019 63.0985 74.3418C62.8424 74.2778 62.0258 73.4772 60.9211 72.2124C59.9604 71.0916 59.1599 70.131 59.1759 70.0829C59.1759 69.9869 60.809 68.642 60.9211 68.658C60.9691 68.658 61.7856 69.5706 62.7303 70.6753Z" fill="#D38094"/>
<path d="M39.4986 7.81697C37.7374 8.1532 35.8161 9.72226 35.0156 11.4514C34.4552 12.6682 34.3271 14.8777 34.7434 16.1426C35.3358 17.9678 36.5046 19.2487 38.2978 20.0972C39.1304 20.4815 39.4025 20.5295 40.9076 20.5295C42.4926 20.5295 42.6687 20.4975 43.6614 20.0012C45.4066 19.1526 46.5273 17.8077 47.2158 15.7583C47.2959 15.5022 47.6641 15.4861 51.7949 15.4861H56.2779V16.4148C56.2779 17.5515 56.6782 18.0479 57.5748 18.0479C58.4394 18.0479 58.8396 17.5355 58.8396 16.3988V15.4861H60.7609H62.6822V17.0552C62.6822 18.4962 62.7143 18.6563 63.0505 18.9765C63.5628 19.4568 64.4434 19.4408 64.8917 18.9605C65.228 18.6082 65.244 18.4321 65.244 16.0145C65.244 13.6129 65.228 13.4368 64.9077 13.1486C64.5875 12.8604 64.1712 12.8444 55.8616 12.7963C47.568 12.7643 47.1518 12.7483 47.1518 12.4601C47.1518 11.8837 46.1751 10.2186 45.4066 9.51412C43.7735 7.97708 41.6921 7.38468 39.4986 7.81697ZM42.4126 10.763C43.6934 11.3714 44.574 12.7483 44.59 14.1252C44.59 16.1426 42.8609 17.8878 40.8755 17.8878C40.091 17.8878 38.7461 17.3114 38.2338 16.751C37.2731 15.6943 36.9689 13.8851 37.5453 12.6843C37.9135 11.8997 38.1057 11.6756 38.8262 11.1312C39.8669 10.3467 41.2438 10.2026 42.4126 10.763Z" fill="#D38094"/>
<path d="M5.73172 24.4522C5.28342 24.6443 5.04326 25.0926 5.04326 25.7811C5.04326 26.5016 5.58763 27.0139 6.34013 27.0139C7.89318 27.0139 8.08531 24.6123 6.56428 24.3721C6.30811 24.3401 5.92385 24.3721 5.73172 24.4522Z" fill="#D38094"/>
<path d="M10.8554 24.4522C10.4071 24.6443 10.167 25.0926 10.167 25.7811C10.167 26.5016 10.7113 27.0139 11.4638 27.0139C13.0169 27.0139 13.209 24.6123 11.688 24.3721C11.4318 24.3401 11.0476 24.3721 10.8554 24.4522Z" fill="#D38094"/>
<path d="M15.9788 24.4522C15.5305 24.6443 15.2903 25.0926 15.2903 25.7811C15.2903 26.5016 15.8347 27.0139 16.5872 27.0139C18.1403 27.0139 18.3324 24.6123 16.8114 24.3721C16.5552 24.3401 16.1709 24.3721 15.9788 24.4522Z" fill="#D38094"/>
</svg>
