<svg width="87" height="95" viewBox="0 0 87 95" fill="none" xmlns="http://www.w3.org/2000/svg">
<circle cx="43.5" cy="51.5" r="43.5" fill="#F2F3FA"/>
<path d="M38.7215 0.395139C37.7009 0.935436 36.9205 1.92598 36.4552 3.27673C36.1701 4.1322 36.11 4.62747 36.065 6.78866L36.035 9.29504L34.9094 12.0416C31.8777 19.5007 28.3958 26.1343 25.6793 29.6763C25.199 30.3066 24.1784 31.4322 23.428 32.1526C21.9872 33.5634 21.0717 34.7491 20.1862 36.355C19.8861 36.9103 19.6159 37.3605 19.6159 37.3605C19.6009 37.3605 19.2107 37.2104 18.7605 37.0303C17.965 36.7001 17.7099 36.6851 12.442 36.6401C9.29024 36.6101 6.49871 36.6551 5.86836 36.7302C3.21189 37.1054 1.06571 38.8914 0.30029 41.3827C0.0151332 42.3132 0.000124939 42.8235 0.000124939 56.481C0.000124939 71.8645 -0.0298916 71.2792 0.840588 72.8551C1.35087 73.7556 2.47649 74.8812 3.37699 75.3915C4.8478 76.2019 5.11794 76.2319 11.5415 76.2319C15.0984 76.2319 17.7549 76.1569 18.1601 76.0668C18.5353 75.9768 19.2107 75.7216 19.661 75.4965L20.4864 75.0763L22.7377 75.3464C30.632 76.307 37.2056 76.6672 47.6514 76.7272C55.4707 76.7572 55.8159 76.7422 57.4968 76.427C65.3611 74.9262 69.6385 70.994 69.6385 65.2459V63.9101L70.554 62.8295C71.6796 61.4788 72.2049 60.5783 72.7302 59.0475C73.0754 58.0269 73.1354 57.5917 73.1504 56.1208C73.1654 54.8902 73.0904 54.0797 72.8803 53.2993L72.6101 52.2187L73.2405 51.2432C74.216 49.7423 74.6212 48.5117 74.7113 46.7257C74.8163 44.5945 74.4111 43.0186 73.3155 41.1876L72.7902 40.3171L73.1054 39.0264C73.5256 37.3155 73.4506 35.2143 72.9103 33.7435C71.6496 30.3366 68.4979 28.2355 63.6052 27.5151C62.2394 27.32 61.2339 27.29 58.4573 27.35C54.8554 27.44 53.1894 27.6201 49.5274 28.3405C48.3268 28.5807 47.3212 28.7458 47.2912 28.7157C47.1861 28.6107 47.5613 26.0443 47.8915 24.6485C48.0566 23.9131 48.6269 21.872 49.1522 20.101C50.593 15.2683 50.7881 14.2178 50.7881 11.1711C50.7881 8.18443 50.608 7.19389 49.6325 5.24281C48.5369 3.00658 46.5108 1.28063 43.9744 0.440163C43.299 0.215039 42.4735 0.0949732 41.2729 0.0349402C39.5919 -0.0401012 39.5319 -0.0250929 38.7215 0.395139ZM42.5486 4.71752C45.6553 5.588 46.976 8.94985 46.0905 13.8275C45.9104 14.7881 45.4302 16.7241 45.0099 18.1049C43.8993 21.7669 43.5541 22.9976 43.2389 24.6785C42.3385 29.241 42.8938 31.9875 44.9049 33.0231C45.9254 33.5484 46.4057 33.5184 50.0527 32.813C54.3901 31.9575 56.1611 31.7624 59.3578 31.7624C62.6146 31.7624 64.9709 32.1526 66.5318 32.9481C67.2672 33.3383 68.1527 34.2388 68.5429 35.0192C69.0832 36.0848 68.9931 37.6157 68.3178 39.0715C67.8225 40.137 67.7024 41.0375 68.0026 41.5928C68.0926 41.7579 68.4979 42.3132 68.9031 42.8085C69.7886 43.9041 70.2388 45.0297 70.2388 46.1403C70.2388 47.1159 69.8036 48.3616 69.1732 49.187C68.9181 49.5172 68.5129 50.0575 68.2577 50.3877C67.5974 51.2732 67.5674 51.9185 68.1527 53.3443C68.5579 54.3649 68.6329 54.7401 68.648 55.8957C68.663 57.1264 68.6179 57.3365 68.1677 58.297C67.7775 59.1075 67.3873 59.6028 66.3967 60.5483C64.9109 61.9891 64.7458 62.3493 65.0009 63.745C65.2411 65.0658 65.106 66.5816 64.6708 67.4671C63.35 70.2286 59.1027 72.0446 53.4296 72.2848C50.548 72.3898 35.8549 72.0596 32.6431 71.8195C28.891 71.5193 24.2535 71.0541 23.4881 70.904C23.1879 70.844 23.1879 70.7389 23.2329 56.7662C23.2629 47.401 23.2179 42.4783 23.1129 42.0581C22.9328 41.2927 23.1279 40.6023 24.0434 38.7863C24.8088 37.2855 25.229 36.7152 26.955 35.0192C30.9922 31.027 35.5247 22.8775 39.8621 11.8464L40.5975 9.97042L40.5525 7.68916C40.5074 6.20334 40.5525 5.21279 40.6725 4.8676C40.8676 4.26727 40.8977 4.26727 42.5486 4.71752ZM17.6649 41.5028C17.89 41.6679 18.2352 42.0431 18.4303 42.3132L18.7605 42.8085V56.406C18.7605 69.3581 18.7455 70.0335 18.4753 70.5288C18.3252 70.8139 18.0251 71.1891 17.7999 71.3542C17.4097 71.6394 17.1546 71.6544 11.7366 71.6994C6.3036 71.7294 6.06347 71.7294 5.5832 71.4293C5.31305 71.2642 4.96786 70.919 4.80277 70.6489C4.51761 70.1686 4.50261 69.8534 4.50261 56.436C4.50261 42.7785 4.50261 42.7185 4.81778 42.2082C4.99788 41.938 5.37309 41.5778 5.67325 41.4127C6.19854 41.1426 6.52872 41.1276 11.7366 41.1576C17.0495 41.1876 17.2446 41.2026 17.6649 41.5028Z" fill="#717AE0"/>
</svg>
