<svg width="87" height="95" viewBox="0 0 87 95" fill="none" xmlns="http://www.w3.org/2000/svg">
<circle cx="43.5" cy="51.5" r="43.5" fill="#EBF8FE"/>
<path d="M67.9793 3.90939L64.0699 7.81879L62.1152 6.93166C58.5968 5.32279 55.1084 4.3304 51.214 3.81918C48.5376 3.47334 43.1547 3.59363 40.5534 4.05975C31.0205 5.75884 22.916 10.6907 17.2324 18.2689C13.6087 23.1105 11.1879 28.9145 10.3158 34.9139C9.89475 37.7106 9.89475 42.868 10.3158 45.6647C11.263 52.1603 13.6839 57.7838 17.8188 63.1517C19.0818 64.7907 22.1943 67.9031 23.8633 69.1963C29.0658 73.2259 34.9449 75.752 41.3353 76.6842C44.132 77.1053 49.2894 77.1053 52.0861 76.6842C58.5065 75.752 64.6864 73.0455 69.7836 68.9406C76.7454 63.3472 81.3314 55.5134 82.9402 46.4466C83.4064 43.8453 83.5267 38.4624 83.1808 35.786C82.6696 31.8916 81.6772 28.4032 80.0683 24.8848L79.1812 22.9301L83.0906 19.0207C86.9549 15.1414 87 15.0963 87 14.4648C87 13.9836 86.9248 13.7881 86.6542 13.6227C86.4587 13.4874 84.9401 13.1867 83.0906 12.9311C81.3163 12.6604 79.7676 12.4198 79.6473 12.3898C79.512 12.3447 79.7225 12.0289 80.2939 11.4425C81.587 10.0742 81.5569 9.96895 79.2865 7.69849C77.031 5.44308 76.9258 5.41301 75.5575 6.70612C74.9711 7.27749 74.6553 7.48799 74.6102 7.35267C74.5802 7.23238 74.3396 5.68366 74.084 3.90939C73.8133 2.04491 73.5126 0.541302 73.3923 0.345833C73.2119 0.0751826 73.0164 0 72.5352 0C71.9037 0 71.8586 0.045109 67.9793 3.90939ZM72.5653 9.3224C72.5653 9.62312 71.8285 10.4501 69.1822 13.0814C66.9869 15.2767 65.784 16.3743 65.7389 16.224C65.7088 16.1187 65.4833 14.7354 65.2578 13.1867L64.8518 10.3449L68.2951 6.90158L71.7383 3.45831L72.1443 6.20992C72.3698 7.71354 72.5503 9.11189 72.5653 9.3224ZM50.5374 6.02949C52.5973 6.23999 55.3038 6.8264 57.3788 7.51807C59.3937 8.17966 62.3408 9.44269 62.431 9.68327C62.4911 9.87874 63.694 17.878 63.694 18.1486C63.694 18.2388 62.9572 17.8328 62.0551 17.2314C59.0629 15.2316 55.6046 13.7881 52.026 13.0664C49.9961 12.6604 45.4853 12.5101 43.2749 12.7657C30.7348 14.2693 20.7508 24.1631 19.1119 36.7333C16.9467 53.3782 29.8326 68.0836 46.5829 68.1136C60.4462 68.1287 72.0691 58.1447 74.1441 44.4167C74.4448 42.4169 74.4448 38.3722 74.1441 36.3122C73.5126 32.1172 72.0992 28.4333 69.7836 24.96C69.1672 24.0428 68.7612 23.306 68.8514 23.306C69.122 23.306 77.1213 24.5089 77.3167 24.569C77.5573 24.6592 78.8203 27.6063 79.4819 29.6212C80.1285 31.5759 80.7299 34.2824 80.9705 36.3574C81.181 38.1166 81.1961 42.5222 80.9855 44.2062C79.091 59.6483 67.5282 71.7674 52.2214 74.3536C49.0338 74.8799 44.3726 74.8799 41.1849 74.3536C28.5997 72.2185 18.2699 63.5276 14.1199 51.5739C12.8118 47.8149 12.2253 44.3265 12.2404 40.2216C12.2554 28.6438 17.9992 17.9682 27.6825 11.5477C34.4337 7.06698 42.2525 5.18746 50.5374 6.02949ZM63.6639 24.7795C55.5294 32.9141 48.7631 39.6352 48.6128 39.7104C48.0564 40.0262 47.1543 39.3195 47.1543 38.5977C47.1543 38.5075 53.8754 31.7112 62.0701 23.5015L77.001 8.57059L77.7077 9.27729L78.4294 9.99902L63.6639 24.7795ZM80.7901 14.8557L83.5417 15.2617L80.0984 18.7049L76.6551 22.1482L73.8133 21.7422C72.2646 21.5167 70.8813 21.3062 70.776 21.2611C70.6257 21.216 71.7083 20.0281 73.9186 17.8178C76.5499 15.1715 77.3769 14.4347 77.6776 14.4347C77.8881 14.4497 79.2865 14.6302 80.7901 14.8557ZM49.0037 14.9609C52.8079 15.2166 57.2134 16.7653 60.8071 19.141L62.2054 20.0582L59.7996 22.464L57.3939 24.8698L56.8225 24.539C53.3642 22.479 50.4622 21.652 46.7032 21.652C42.7036 21.652 39.5159 22.5993 36.2531 24.7795C33.0053 26.9447 30.389 30.2978 29.0808 33.9816C28.3591 36.0416 28.1787 37.0189 28.1035 39.6202C28.0133 42.447 28.1937 43.8905 28.9154 46.0857C30.2236 50.1004 32.8248 53.5286 36.2531 55.8141C38.5085 57.3177 40.6587 58.1898 43.3802 58.701C45.0191 59.0168 48.3722 59.0168 50.0262 58.7161C57.7547 57.2876 63.694 51.3484 65.1224 43.6198C65.4232 41.9809 65.4232 38.6128 65.1224 36.9738C64.7014 34.7184 63.8143 32.448 62.461 30.1775L62.1302 29.6061L64.536 27.2004L66.9418 24.7946L67.859 26.1929C70.0844 29.5761 71.4827 33.305 71.9639 37.1843C72.2345 39.2593 72.0842 43.5597 71.6932 45.3339C70.6106 50.1756 68.4304 54.3857 65.2728 57.7087C61.1379 62.0691 56.5518 64.4899 50.4622 65.5876C49.7706 65.7079 48.2519 65.7831 46.4776 65.768C43.9816 65.768 43.3802 65.7079 41.7112 65.362C34.9449 63.9336 29.2613 60.1295 25.4722 54.506C20.1494 46.597 19.7284 36.1769 24.4046 27.9071C28.0584 21.4415 34.4187 16.7954 41.651 15.3218C43.2148 15.0061 45.9814 14.7655 47.1543 14.8407C47.5302 14.8557 48.3572 14.9158 49.0037 14.9609ZM49.2894 24.0728C50.778 24.2683 52.5973 24.8848 54.2814 25.7418L55.7549 26.5087L53.274 28.9897L50.793 31.4706L49.8457 31.1248C48.5075 30.6587 45.6807 30.5384 44.2974 30.8992C41.5909 31.5909 39.1851 33.5155 37.9973 35.9363C35.3359 41.3794 37.9672 47.7698 43.6057 49.5591C45.2146 50.0703 47.1392 50.1756 48.6579 49.8598C52.2365 49.108 55.1836 46.2662 56.1008 42.7026C56.4616 41.3193 56.3413 38.4925 55.8752 37.1543L55.5294 36.207L58.0254 33.711L60.5063 31.23L61.3484 32.9442C62.5813 35.4552 62.9572 36.8987 63.0475 39.4999C63.1828 42.7477 62.7167 44.9731 61.3484 47.6796C59.0629 52.2505 54.7325 55.4983 49.6653 56.4607C48.1316 56.7463 45.2748 56.7463 43.7411 56.4607C37.0199 55.1826 31.8174 49.9801 30.5393 43.2589C30.2537 41.7102 30.2537 38.688 30.5393 37.2595C31.2761 33.7561 32.9602 30.6737 35.4261 28.3882C39.2603 24.7946 43.9816 23.321 49.2894 24.0728ZM48.4173 33.0945L48.9887 33.2599L47.2595 35.0041C45.4401 36.8535 45.1545 37.2896 44.9891 38.282C44.6282 40.372 46.628 42.3718 48.718 42.0109C49.7104 41.8455 50.1465 41.5599 51.9959 39.7254L53.7551 37.9963L53.9205 38.6579C54.0408 39.0639 54.0709 39.8908 54.0408 40.778C53.9807 42.056 53.9055 42.3568 53.4243 43.3642C52.6575 44.9881 51.5147 46.1459 49.8758 46.9578L48.6128 47.5893H46.7032H44.8086L43.5306 46.9578C41.8916 46.1459 40.7639 45.0031 39.967 43.3492C39.4107 42.1914 39.4107 42.1613 39.4107 40.2968C39.4107 38.4323 39.4107 38.4023 39.967 37.2445C40.8992 35.2898 42.6434 33.7711 44.6583 33.1396C45.4251 32.899 47.6354 32.869 48.4173 33.0945Z" fill="#60C2F8"/>
</svg>
